<?xml version="1.0" encoding="UTF-8"?>
<svg xmlns="http://www.w3.org/2000/svg" version="1.1" width="200" height="200" viewBox="0 0 200 200"><rect x="0" y="0" width="200" height="200" fill="#ffffff"/><g transform="scale(8)"><g transform="translate(0,0)"><path fill-rule="evenodd" d="M8 0L8 4L9 4L9 5L8 5L8 7L9 7L9 6L10 6L10 9L11 9L11 10L9 10L9 12L10 12L10 11L11 11L11 12L12 12L12 13L9 13L9 15L10 15L10 14L11 14L11 15L12 15L12 17L11 17L11 16L10 16L10 17L9 17L9 16L8 16L8 15L7 15L7 14L8 14L8 13L7 13L7 12L6 12L6 11L7 11L7 10L6 10L6 11L5 11L5 12L4 12L4 10L5 10L5 9L7 9L7 8L4 8L4 10L3 10L3 9L2 9L2 8L0 8L0 10L1 10L1 9L2 9L2 10L3 10L3 15L2 15L2 16L0 16L0 17L2 17L2 16L3 16L3 15L4 15L4 16L5 16L5 17L8 17L8 18L10 18L10 19L11 19L11 20L12 20L12 21L11 21L11 22L9 22L9 23L8 23L8 25L9 25L9 24L10 24L10 25L11 25L11 24L12 24L12 25L13 25L13 24L12 24L12 23L14 23L14 22L15 22L15 25L16 25L16 22L15 22L15 21L13 21L13 19L14 19L14 20L15 20L15 17L16 17L16 21L17 21L17 23L18 23L18 25L19 25L19 24L22 24L22 25L25 25L25 24L24 24L24 22L25 22L25 21L24 21L24 20L25 20L25 19L22 19L22 18L23 18L23 16L24 16L24 15L23 15L23 14L24 14L24 13L25 13L25 12L24 12L24 11L23 11L23 10L24 10L24 9L25 9L25 8L21 8L21 9L20 9L20 8L19 8L19 9L20 9L20 10L19 10L19 11L18 11L18 10L17 10L17 8L16 8L16 7L17 7L17 6L16 6L16 7L15 7L15 5L16 5L16 4L15 4L15 5L14 5L14 3L13 3L13 2L15 2L15 1L16 1L16 0L15 0L15 1L13 1L13 0L10 0L10 1L13 1L13 2L12 2L12 3L13 3L13 4L11 4L11 3L10 3L10 2L9 2L9 0ZM16 2L16 3L17 3L17 2ZM10 4L10 5L11 5L11 7L12 7L12 5L11 5L11 4ZM13 6L13 9L12 9L12 8L11 8L11 9L12 9L12 10L13 10L13 13L12 13L12 14L13 14L13 17L12 17L12 19L13 19L13 18L14 18L14 16L19 16L19 15L21 15L21 14L23 14L23 13L21 13L21 12L22 12L22 11L21 11L21 12L20 12L20 13L17 13L17 14L16 14L16 15L15 15L15 13L16 13L16 11L17 11L17 12L18 12L18 11L17 11L17 10L16 10L16 11L15 11L15 9L16 9L16 8L15 8L15 7L14 7L14 6ZM14 8L14 9L13 9L13 10L14 10L14 9L15 9L15 8ZM22 9L22 10L23 10L23 9ZM1 11L1 12L0 12L0 14L1 14L1 13L2 13L2 11ZM5 12L5 16L7 16L7 15L6 15L6 14L7 14L7 13L6 13L6 12ZM14 12L14 13L13 13L13 14L14 14L14 13L15 13L15 12ZM20 13L20 14L21 14L21 13ZM17 14L17 15L18 15L18 14ZM10 17L10 18L11 18L11 17ZM17 17L17 20L20 20L20 17ZM21 17L21 18L22 18L22 17ZM18 18L18 19L19 19L19 18ZM8 19L8 21L10 21L10 20L9 20L9 19ZM21 20L21 21L20 21L20 23L23 23L23 22L21 22L21 21L22 21L22 20ZM12 21L12 22L13 22L13 21ZM0 0L0 7L7 7L7 0ZM1 1L1 6L6 6L6 1ZM2 2L2 5L5 5L5 2ZM18 0L18 7L25 7L25 0ZM19 1L19 6L24 6L24 1ZM20 2L20 5L23 5L23 2ZM0 18L0 25L7 25L7 18ZM1 19L1 24L6 24L6 19ZM2 20L2 23L5 23L5 20Z" fill="#000000"/></g></g></svg>
