<?xml version="1.0" encoding="UTF-8"?>
<svg xmlns="http://www.w3.org/2000/svg" version="1.1" width="200" height="200" viewBox="0 0 200 200"><rect x="0" y="0" width="200" height="200" fill="#ffffff"/><g transform="scale(8)"><g transform="translate(0,0)"><path fill-rule="evenodd" d="M8 0L8 1L9 1L9 3L10 3L10 4L12 4L12 5L11 5L11 6L10 6L10 5L9 5L9 6L8 6L8 8L9 8L9 9L8 9L8 10L6 10L6 9L7 9L7 8L6 8L6 9L5 9L5 8L3 8L3 9L4 9L4 10L6 10L6 11L7 11L7 12L5 12L5 11L3 11L3 10L1 10L1 9L2 9L2 8L0 8L0 10L1 10L1 11L0 11L0 17L1 17L1 15L2 15L2 17L4 17L4 16L3 16L3 15L5 15L5 17L8 17L8 18L9 18L9 19L10 19L10 18L9 18L9 16L11 16L11 17L13 17L13 18L11 18L11 19L13 19L13 20L12 20L12 21L10 21L10 20L8 20L8 22L9 22L9 21L10 21L10 23L11 23L11 25L13 25L13 23L18 23L18 22L19 22L19 24L16 24L16 25L19 25L19 24L21 24L21 25L22 25L22 24L24 24L24 25L25 25L25 21L24 21L24 20L23 20L23 22L22 22L22 20L21 20L21 19L22 19L22 18L21 18L21 16L20 16L20 14L21 14L21 15L22 15L22 17L23 17L23 18L24 18L24 19L25 19L25 18L24 18L24 16L25 16L25 14L24 14L24 13L25 13L25 10L24 10L24 9L25 9L25 8L24 8L24 9L19 9L19 8L18 8L18 9L19 9L19 10L16 10L16 8L17 8L17 5L16 5L16 8L15 8L15 6L14 6L14 7L13 7L13 4L16 4L16 3L17 3L17 2L16 2L16 3L14 3L14 2L15 2L15 1L13 1L13 0L12 0L12 1L13 1L13 3L12 3L12 2L10 2L10 0ZM16 0L16 1L17 1L17 0ZM9 6L9 7L10 7L10 9L9 9L9 10L10 10L10 11L9 11L9 12L8 12L8 13L9 13L9 14L10 14L10 15L12 15L12 16L14 16L14 15L15 15L15 13L14 13L14 12L15 12L15 11L14 11L14 10L15 10L15 8L13 8L13 7L12 7L12 6L11 6L11 7L10 7L10 6ZM12 8L12 9L10 9L10 10L11 10L11 12L9 12L9 13L10 13L10 14L12 14L12 13L13 13L13 15L14 15L14 13L13 13L13 12L12 12L12 9L13 9L13 8ZM20 10L20 11L21 11L21 10ZM22 10L22 11L24 11L24 10ZM1 11L1 14L2 14L2 15L3 15L3 13L2 13L2 11ZM17 11L17 12L16 12L16 13L17 13L17 14L16 14L16 16L15 16L15 17L14 17L14 18L13 18L13 19L14 19L14 20L13 20L13 21L12 21L12 23L13 23L13 22L14 22L14 20L15 20L15 19L16 19L16 16L17 16L17 15L18 15L18 14L20 14L20 13L21 13L21 14L23 14L23 13L24 13L24 12L20 12L20 13L18 13L18 12L19 12L19 11ZM4 12L4 14L5 14L5 15L6 15L6 16L7 16L7 15L6 15L6 14L7 14L7 13L5 13L5 12ZM8 15L8 16L9 16L9 15ZM23 15L23 16L24 16L24 15ZM17 17L17 20L20 20L20 17ZM18 18L18 19L19 19L19 18ZM15 21L15 22L16 22L16 21ZM19 21L19 22L21 22L21 24L22 24L22 22L21 22L21 21ZM8 23L8 25L10 25L10 24L9 24L9 23ZM0 0L0 7L7 7L7 0ZM1 1L1 6L6 6L6 1ZM2 2L2 5L5 5L5 2ZM18 0L18 7L25 7L25 0ZM19 1L19 6L24 6L24 1ZM20 2L20 5L23 5L23 2ZM0 18L0 25L7 25L7 18ZM1 19L1 24L6 24L6 19ZM2 20L2 23L5 23L5 20Z" fill="#000000"/></g></g></svg>
