<?xml version="1.0" encoding="UTF-8"?>
<svg xmlns="http://www.w3.org/2000/svg" version="1.1" width="300" height="300" viewBox="0 0 300 300"><rect x="0" y="0" width="300" height="300" fill="#ffffff"/><g transform="scale(10.345)"><g transform="translate(0,0)"><path fill-rule="evenodd" d="M8 0L8 4L10 4L10 3L11 3L11 4L12 4L12 2L11 2L11 0ZM12 0L12 1L13 1L13 0ZM14 0L14 1L17 1L17 3L16 3L16 2L14 2L14 3L13 3L13 5L11 5L11 6L10 6L10 7L9 7L9 5L8 5L8 7L9 7L9 8L10 8L10 7L11 7L11 6L12 6L12 8L11 8L11 9L8 9L8 10L11 10L11 11L10 11L10 13L9 13L9 12L8 12L8 11L7 11L7 10L5 10L5 12L4 12L4 13L3 13L3 12L2 12L2 10L3 10L3 11L4 11L4 10L3 10L3 9L2 9L2 8L0 8L0 10L1 10L1 11L0 11L0 13L1 13L1 14L2 14L2 13L3 13L3 16L2 16L2 15L1 15L1 16L0 16L0 18L1 18L1 17L3 17L3 19L2 19L2 20L0 20L0 21L4 21L4 20L6 20L6 21L7 21L7 20L6 20L6 19L7 19L7 18L6 18L6 17L10 17L10 15L11 15L11 16L12 16L12 17L11 17L11 18L9 18L9 19L12 19L12 20L11 20L11 21L8 21L8 22L9 22L9 23L8 23L8 25L9 25L9 26L10 26L10 27L8 27L8 29L9 29L9 28L11 28L11 27L14 27L14 28L15 28L15 29L16 29L16 27L17 27L17 29L18 29L18 28L19 28L19 26L20 26L20 25L21 25L21 27L20 27L20 29L22 29L22 28L23 28L23 29L25 29L25 28L26 28L26 27L27 27L27 29L28 29L28 28L29 28L29 25L27 25L27 26L25 26L25 27L24 27L24 28L23 28L23 27L22 27L22 25L23 25L23 26L24 26L24 25L26 25L26 24L25 24L25 23L27 23L27 24L29 24L29 17L28 17L28 16L29 16L29 13L28 13L28 12L29 12L29 8L25 8L25 9L24 9L24 8L23 8L23 9L22 9L22 11L21 11L21 5L19 5L19 3L20 3L20 1L19 1L19 0ZM18 1L18 2L19 2L19 1ZM9 2L9 3L10 3L10 2ZM15 3L15 4L16 4L16 3ZM17 3L17 4L18 4L18 3ZM13 5L13 10L12 10L12 9L11 9L11 10L12 10L12 11L13 11L13 12L11 12L11 13L10 13L10 14L9 14L9 15L10 15L10 14L11 14L11 13L12 13L12 14L13 14L13 13L14 13L14 15L13 15L13 17L12 17L12 19L13 19L13 21L12 21L12 23L11 23L11 24L10 24L10 23L9 23L9 25L10 25L10 26L11 26L11 24L12 24L12 23L13 23L13 25L15 25L15 24L14 24L14 23L15 23L15 22L14 22L14 21L17 21L17 23L16 23L16 25L17 25L17 26L18 26L18 25L19 25L19 24L18 24L18 25L17 25L17 23L19 23L19 22L18 22L18 21L20 21L20 20L19 20L19 19L20 19L20 18L22 18L22 17L23 17L23 16L24 16L24 17L26 17L26 18L25 18L25 19L24 19L24 18L23 18L23 19L21 19L21 20L26 20L26 21L25 21L25 22L27 22L27 23L28 23L28 20L27 20L27 19L28 19L28 18L27 18L27 15L28 15L28 14L27 14L27 15L24 15L24 13L27 13L27 11L28 11L28 10L25 10L25 11L26 11L26 12L24 12L24 11L22 11L22 13L20 13L20 12L21 12L21 11L20 11L20 8L19 8L19 11L20 11L20 12L18 12L18 13L17 13L17 12L16 12L16 11L18 11L18 10L16 10L16 11L15 11L15 10L14 10L14 9L17 9L17 7L18 7L18 6L19 6L19 7L20 7L20 6L19 6L19 5L17 5L17 7L16 7L16 5ZM14 6L14 8L16 8L16 7L15 7L15 6ZM4 8L4 9L7 9L7 8ZM6 11L6 12L7 12L7 13L4 13L4 14L5 14L5 17L6 17L6 16L8 16L8 15L6 15L6 14L7 14L7 13L8 13L8 12L7 12L7 11ZM14 11L14 12L15 12L15 11ZM15 13L15 15L14 15L14 16L15 16L15 18L14 18L14 17L13 17L13 18L14 18L14 19L15 19L15 20L16 20L16 18L17 18L17 21L18 21L18 16L20 16L20 17L22 17L22 16L23 16L23 13L22 13L22 14L20 14L20 15L19 15L19 13L18 13L18 14L17 14L17 13ZM15 15L15 16L16 16L16 17L17 17L17 15ZM21 15L21 16L22 16L22 15ZM5 18L5 19L6 19L6 18ZM26 18L26 19L27 19L27 18ZM21 21L21 24L24 24L24 21ZM22 22L22 23L23 23L23 22ZM14 26L14 27L15 27L15 26ZM21 27L21 28L22 28L22 27ZM0 0L0 7L7 7L7 0ZM1 1L1 6L6 6L6 1ZM2 2L2 5L5 5L5 2ZM22 0L22 7L29 7L29 0ZM23 1L23 6L28 6L28 1ZM24 2L24 5L27 5L27 2ZM0 22L0 29L7 29L7 22ZM1 23L1 28L6 28L6 23ZM2 24L2 27L5 27L5 24Z" fill="#fc0200"/></g></g></svg>
